# xmcd
#
# Track frame offsets:
#	150
#	29353
#	64179
#	80297
#	91410
#	111290
#	120931
#	135204
#	168888
#	185588
#	201075
#	215714
#	228821
#	256273
#	271223
#
# Disc length: 3773
#
# Revision: 1
# Processed by: cddbd v1.5.1PL0 Copyright (c) Steve Scherf et al.
# Submitted via: WhereIsIt 3.23
# Normalized: r0:DSETVAR1
#
DISCID=c30ebb0f
DTITLE=Various Artist - Blues Story - Vol. 02 - Le Blues Anglais
DYEAR=1900
DGENRE=
TTITLE0=Cream - Spoonful
TTITLE1=Peter Green - A Fool No More
TTITLE2=John Mayall and Eric Clapton - All Your Love
TTITLE3=Alexis Korner - Watermelon Man
TTITLE4=The Yardbirds - I'm A Man
TTITLE5=The Small Faces - Talk To You
TTITLE6=Manfred Mann - I've Got My Mojo Working
TTITLE7=Ten Years After - Love Like A Man
TTITLE8=The Kinks - Milk Cow Blues
TTITLE9=Jimmy Page - Down In The Boots
TTITLE10=Rod Stewart - So Much To Say
TTITLE11=The Pretty Things - I Had A Dream
TTITLE12=Fleetwood Mac - Black Magic Wooman (Live)
TTITLE13=The Animals - Boom Boom
TTITLE14=Jeff Beck - Steelin'
EXTD=
EXTT0=
EXTT1=
EXTT2=
EXTT3=
EXTT4=
EXTT5=
EXTT6=
EXTT7=
EXTT8=
EXTT9=
EXTT10=
EXTT11=
EXTT12=
EXTT13=
EXTT14=
PLAYORDER=
